<?xml version="1.0" encoding="UTF-8"?>
<svg id="_Слой_1" data-name="Слой 1" xmlns="http://www.w3.org/2000/svg" version="1.1" xmlns:xodm="http://www.corel.com/coreldraw/odm/2003" viewBox="0 0 425.2 841.9">
  <defs>
    <style>
      .cls-1 {
        fill: #fff;
        stroke-width: 0px;
      }
    </style>
  </defs>
  <g id="_Слой_1-2" data-name="Слой_1">
    <polygon class="cls-1" points="424.8 0 280.9 260.4 280.9 415.2 142.9 415.2 142.9 260.4 -.4 0 157 0 212.2 128.2 267.4 0 424.8 0"/>
    <path class="cls-1" d="M190,426.8c69.8,0,126.4,19.2,169.8,57.5,43.4,38.4,65,88.4,65,150s-21.7,111.2-65,149.8c-43.4,38.5-100,57.8-169.8,57.8H-.4v-415.2h190.4ZM179.8,717.4c28.8,0,51.6-7.4,68.5-22.2,16.9-14.8,25.4-35.1,25.4-60.8s-8.5-46-25.4-60.8c-16.9-14.8-39.8-22.2-68.5-22.2h-31.7v166.1h31.7,0Z"/>
  </g>
</svg>